ffmpeg started on 2025-05-13 at 09:46:21
Report written to "D:\Convert\FFMetrics\reports\ssim_report-6.txt"
Log level: 32
Command line:
ffmpeg -hide_banner -nostdin -i "G:\\\xc0\xed\xe8\xec\xe5\\\xce\xed\xe3\xee\xe8\xed\xe3\xe8\\!_35_\xcb\xe5\xf2\xee_2024\\DreamCast-1\\\xd1\xeb\xe8\xf8\xea\xee\xec \xec\xed\xee\xe3\xee \xef\xf0\xee\xe8\xe3\xf0\xe0\xe2\xf8\xe8\xf5 \xe3\xe5\xf0\xee\xe8\xed\xfc!\\[DC] Make Heroine ga Oosugiru - 06_Telegram_HEVC.mkv" -i "G:\\\xc0\xed\xe8\xec\xe5\\\xce\xed\xe3\xee\xe8\xed\xe3\xe8\\!_35_\xcb\xe5\xf2\xee_2024\\DreamCast-1\\\xd1\xeb\xe8\xf8\xea\xee\xec \xec\xed\xee\xe3\xee \xef\xf0\xee\xe8\xe3\xf0\xe0\xe2\xf8\xe8\xf5 \xe3\xe5\xf0\xee\xe8\xed\xfc!\\[DC] Make Heroine ga Oosugiru - 06_Telegram.mp4" -lavfi "[0:v]settb=AVTB,setpts=PTS-STARTPTS,format=pix_fmts=yuv420p10,fps=24000/1001,scale=1920:1080:flags=bicubic[main];[1:v]settb=AVTB,setpts=PTS-STARTPTS,format=pix_fmts=yuv420p,fps=24000/1001,scale=1920:1080:flags=bicubic[ref];[main][ref]ssim=eof_action=endall:stats_file='D\\:/Convert/FFMetrics/logs/ssim_logfile-6.txt'" -f null -
Input #0, matroska,webm, from 'G:\Аниме\Онгоинги\!_35_Лето_2024\DreamCast-1\Слишком много проигравших героинь!\[DC] Make Heroine ga Oosugiru - 06_Telegram_HEVC.mkv':
  Metadata:
    COMPATIBLE_BRANDS: isomiso2avc1mp41
    MAJOR_BRAND     : isom
    MINOR_VERSION   : 512
    ENCODER         : Lavf61.7.100
  Duration: 00:24:06.74, start: -0.021000, bitrate: 1122 kb/s
  Stream #0:0: Video: hevc (Main 10), yuv420p10le(tv, bt709, progressive), 1920x1080 [SAR 1:1 DAR 16:9], 23.98 fps, 23.98 tbr, 1k tbn (default)
      Metadata:
        HANDLER_NAME    : VideoHandler
        VENDOR_ID       : [0][0][0][0]
        ENCODER         : Lavc61.19.100 libx265
        BPS             : 925061
        DURATION        : 00:24:06.569708333
        NUMBER_OF_FRAMES: 34683
        NUMBER_OF_BYTES : 167270599
        _STATISTICS_WRITING_APP: mkvpropedit v66.0.0 ('Josie') 64-bit
        _STATISTICS_WRITING_DATE_UTC: 2025-05-11 10:31:19
        _STATISTICS_TAGS: BPS DURATION NUMBER_OF_FRAMES NUMBER_OF_BYTES
  Stream #0:1: Audio: aac (LC), 48000 Hz, stereo, fltp (default)
      Metadata:
        HANDLER_NAME    : SoundHandler
        VENDOR_ID       : [0][0][0][0]
        ENCODER         : Lavc61.19.100 aac
        BPS             : 193097
        DURATION        : 00:24:06.741000000
        NUMBER_OF_FRAMES: 67817
        NUMBER_OF_BYTES : 34920181
        _STATISTICS_WRITING_APP: mkvpropedit v66.0.0 ('Josie') 64-bit
        _STATISTICS_WRITING_DATE_UTC: 2025-05-11 10:31:19
        _STATISTICS_TAGS: BPS DURATION NUMBER_OF_FRAMES NUMBER_OF_BYTES
Input #1, mov,mp4,m4a,3gp,3g2,mj2, from 'G:\Аниме\Онгоинги\!_35_Лето_2024\DreamCast-1\Слишком много проигравших героинь!\[DC] Make Heroine ga Oosugiru - 06_Telegram.mp4':
  Metadata:
    major_brand     : isom
    minor_version   : 512
    compatible_brands: isomiso2avc1mp41
    encoder         : Lavf61.1.100
  Duration: 00:24:06.69, start: 0.000000, bitrate: 3726 kb/s
  Stream #1:0[0x1](und): Video: h264 (High) (avc1 / 0x31637661), yuv420p(tv, bt709, progressive), 1920x1080 [SAR 1:1 DAR 16:9], 3579 kb/s, 23.98 fps, 23.98 tbr, 24k tbn (default)
      Metadata:
        handler_name    : VideoHandler
        vendor_id       : [0][0][0][0]
        encoder         : Lavc61.3.100 h264_qsv
  Stream #1:1[0x2](und): Audio: aac (HE-AACv2) (mp4a / 0x6134706D), 48000 Hz, stereo, fltp, 144 kb/s (default)
      Metadata:
        handler_name    : SoundHandler
        vendor_id       : [0][0][0][0]
Stream mapping:
  Stream #0:0 (hevc) -> settb:default
  Stream #1:0 (h264) -> settb:default
  ssim:default -> Stream #0:0 (wrapped_avframe)
  Stream #0:1 -> #0:1 (aac (native) -> pcm_s16le (native))
Output #0, null, to 'pipe:':
  Metadata:
    COMPATIBLE_BRANDS: isomiso2avc1mp41
    MAJOR_BRAND     : isom
    MINOR_VERSION   : 512
    encoder         : Lavf61.7.100
  Stream #0:0: Video: wrapped_avframe, yuv420p10le(tv, bt709, progressive), 1920x1080 [SAR 1:1 DAR 16:9], q=2-31, 200 kb/s, 23.98 fps, 23.98 tbn
      Metadata:
        encoder         : Lavc61.19.100 wrapped_avframe
  Stream #0:1: Audio: pcm_s16le, 48000 Hz, stereo, s16, 1536 kb/s (default)
      Metadata:
        HANDLER_NAME    : SoundHandler
        VENDOR_ID       : [0][0][0][0]
        _STATISTICS_TAGS: BPS DURATION NUMBER_OF_FRAMES NUMBER_OF_BYTES
        BPS             : 193097
        DURATION        : 00:24:06.741000000
        NUMBER_OF_FRAMES: 67817
        NUMBER_OF_BYTES : 34920181
        _STATISTICS_WRITING_APP: mkvpropedit v66.0.0 ('Josie') 64-bit
        _STATISTICS_WRITING_DATE_UTC: 2025-05-11 10:31:19
        encoder         : Lavc61.19.100 pcm_s16le
frame=  171 fps=0.0 q=-0.0 size=N/A time=00:00:07.13 bitrate=N/A speed=13.8x    frame=  442 fps=431 q=-0.0 size=N/A time=00:00:18.43 bitrate=N/A speed=  18x    frame=  716 fps=462 q=-0.0 size=N/A time=00:00:29.86 bitrate=N/A speed=19.3x    frame=  985 fps=479 q=-0.0 size=N/A time=00:00:41.08 bitrate=N/A speed=  20x    frame= 1256 fps=487 q=-0.0 size=N/A time=00:00:52.38 bitrate=N/A speed=20.3x    frame= 1512 fps=490 q=-0.0 size=N/A time=00:01:03.06 bitrate=N/A speed=20.5x    frame= 1794 fps=497 q=-0.0 size=N/A time=00:01:14.82 bitrate=N/A speed=20.7x    frame= 2058 fps=500 q=-0.0 size=N/A time=00:01:25.83 bitrate=N/A speed=20.9x    frame= 2326 fps=501 q=-0.0 size=N/A time=00:01:37.01 bitrate=N/A speed=20.9x    frame= 2601 fps=504 q=-0.0 size=N/A time=00:01:48.48 bitrate=N/A speed=  21x    frame= 2866 fps=506 q=-0.0 size=N/A time=00:01:59.53 bitrate=N/A speed=21.1x    frame= 3072 fps=496 q=-0.0 size=N/A time=00:02:08.12 bitrate=N/A speed=20.7x    frame= 3239 fps=484 q=-0.0 size=N/A time=00:02:15.09 bitrate=N/A speed=20.2x    frame= 3423 fps=474 q=-0.0 size=N/A time=00:02:22.76 bitrate=N/A speed=19.8x    frame= 3597 fps=465 q=-0.0 size=N/A time=00:02:30.02 bitrate=N/A speed=19.4x    frame= 3762 fps=456 q=-0.0 size=N/A time=00:02:36.90 bitrate=N/A speed=  19x    frame= 3939 fps=450 q=-0.0 size=N/A time=00:02:44.28 bitrate=N/A speed=18.8x    frame= 4122 fps=444 q=-0.0 size=N/A time=00:02:51.92 bitrate=N/A speed=18.5x    frame= 4237 fps=433 q=-0.0 size=N/A time=00:02:56.71 bitrate=N/A speed=18.1x    frame= 4420 fps=429 q=-0.0 size=N/A time=00:03:04.35 bitrate=N/A speed=17.9x    frame= 4584 fps=424 q=-0.0 size=N/A time=00:03:11.19 bitrate=N/A speed=17.7x    frame= 4738 fps=418 q=-0.0 size=N/A time=00:03:17.61 bitrate=N/A speed=17.4x    frame= 4939 fps=417 q=-0.0 size=N/A time=00:03:25.99 bitrate=N/A speed=17.4x    frame= 5154 fps=416 q=-0.0 size=N/A time=00:03:34.96 bitrate=N/A speed=17.4x    frame= 5422 fps=421 q=-0.0 size=N/A time=00:03:46.14 bitrate=N/A speed=17.6x    frame= 5677 fps=423 q=-0.0 size=N/A time=00:03:56.77 bitrate=N/A speed=17.7x    frame= 5928 fps=426 q=-0.0 size=N/A time=00:04:07.24 bitrate=N/A speed=17.8x    frame= 6201 fps=430 q=-0.0 size=N/A time=00:04:18.63 bitrate=N/A speed=17.9x    frame= 6455 fps=432 q=-0.0 size=N/A time=00:04:29.22 bitrate=N/A speed=  18x    frame= 6701 fps=433 q=-0.0 size=N/A time=00:04:39.48 bitrate=N/A speed=18.1x    frame= 6976 fps=436 q=-0.0 size=N/A time=00:04:50.95 bitrate=N/A speed=18.2x    frame= 7236 fps=439 q=-0.0 size=N/A time=00:05:01.80 bitrate=N/A speed=18.3x    frame= 7500 fps=441 q=-0.0 size=N/A time=00:05:12.81 bitrate=N/A speed=18.4x    frame= 7761 fps=443 q=-0.0 size=N/A time=00:05:23.69 bitrate=N/A speed=18.5x    frame= 8034 fps=445 q=-0.0 size=N/A time=00:05:35.08 bitrate=N/A speed=18.6x    frame= 8310 fps=448 q=-0.0 size=N/A time=00:05:46.59 bitrate=N/A speed=18.7x    frame= 8586 fps=450 q=-0.0 size=N/A time=00:05:58.10 bitrate=N/A speed=18.8x    frame= 8870 fps=453 q=-0.0 size=N/A time=00:06:09.95 bitrate=N/A speed=18.9x    frame= 9074 fps=451 q=-0.0 size=N/A time=00:06:18.46 bitrate=N/A speed=18.8x    frame= 9277 fps=450 q=-0.0 size=N/A time=00:06:26.92 bitrate=N/A speed=18.8x    frame= 9528 fps=451 q=-0.0 size=N/A time=00:06:37.39 bitrate=N/A speed=18.8x    frame= 9795 fps=452 q=-0.0 size=N/A time=00:06:48.53 bitrate=N/A speed=18.9x    frame=10061 fps=454 q=-0.0 size=N/A time=00:06:59.62 bitrate=N/A speed=18.9x    frame=10334 fps=456 q=-0.0 size=N/A time=00:07:11.01 bitrate=N/A speed=  19x    frame=10599 fps=457 q=-0.0 size=N/A time=00:07:22.06 bitrate=N/A speed=19.1x    frame=10869 fps=458 q=-0.0 size=N/A time=00:07:33.32 bitrate=N/A speed=19.1x    frame=11120 fps=459 q=-0.0 size=N/A time=00:07:43.79 bitrate=N/A speed=19.1x    frame=11382 fps=460 q=-0.0 size=N/A time=00:07:54.72 bitrate=N/A speed=19.2x    frame=11655 fps=461 q=-0.0 size=N/A time=00:08:06.11 bitrate=N/A speed=19.2x    frame=11900 fps=462 q=-0.0 size=N/A time=00:08:16.32 bitrate=N/A speed=19.3x    frame=12175 fps=463 q=-0.0 size=N/A time=00:08:27.79 bitrate=N/A speed=19.3x    frame=12403 fps=463 q=-0.0 size=N/A time=00:08:37.30 bitrate=N/A speed=19.3x    frame=12655 fps=463 q=-0.0 size=N/A time=00:08:47.81 bitrate=N/A speed=19.3x    frame=12901 fps=463 q=-0.0 size=N/A time=00:08:58.07 bitrate=N/A speed=19.3x    frame=13155 fps=464 q=-0.0 size=N/A time=00:09:08.67 bitrate=N/A speed=19.4x    frame=13415 fps=465 q=-0.0 size=N/A time=00:09:19.51 bitrate=N/A speed=19.4x    frame=13698 fps=466 q=-0.0 size=N/A time=00:09:31.32 bitrate=N/A speed=19.4x    frame=13966 fps=467 q=-0.0 size=N/A time=00:09:42.49 bitrate=N/A speed=19.5x    frame=14250 fps=468 q=-0.0 size=N/A time=00:09:54.34 bitrate=N/A speed=19.5x    frame=14529 fps=470 q=-0.0 size=N/A time=00:10:05.98 bitrate=N/A speed=19.6x    frame=14815 fps=471 q=-0.0 size=N/A time=00:10:17.90 bitrate=N/A speed=19.6x    frame=15100 fps=472 q=-0.0 size=N/A time=00:10:29.79 bitrate=N/A speed=19.7x    frame=15375 fps=473 q=-0.0 size=N/A time=00:10:41.26 bitrate=N/A speed=19.7x    frame=15650 fps=474 q=-0.0 size=N/A time=00:10:52.73 bitrate=N/A speed=19.8x    frame=15925 fps=475 q=-0.0 size=N/A time=00:11:04.20 bitrate=N/A speed=19.8x    frame=16209 fps=476 q=-0.0 size=N/A time=00:11:16.05 bitrate=N/A speed=19.9x    frame=16476 fps=477 q=-0.0 size=N/A time=00:11:27.18 bitrate=N/A speed=19.9x    frame=16744 fps=478 q=-0.0 size=N/A time=00:11:38.36 bitrate=N/A speed=19.9x    frame=17008 fps=478 q=-0.0 size=N/A time=00:11:49.37 bitrate=N/A speed=19.9x    frame=17290 fps=479 q=-0.0 size=N/A time=00:12:01.13 bitrate=N/A speed=  20x    frame=17557 fps=480 q=-0.0 size=N/A time=00:12:12.27 bitrate=N/A speed=  20x    frame=17836 fps=480 q=-0.0 size=N/A time=00:12:23.90 bitrate=N/A speed=  20x    frame=18091 fps=481 q=-0.0 size=N/A time=00:12:34.54 bitrate=N/A speed=20.1x    frame=18380 fps=482 q=-0.0 size=N/A time=00:12:46.59 bitrate=N/A speed=20.1x    frame=18662 fps=483 q=-0.0 size=N/A time=00:12:58.36 bitrate=N/A speed=20.1x    frame=18939 fps=483 q=-0.0 size=N/A time=00:13:09.91 bitrate=N/A speed=20.2x    frame=19218 fps=484 q=-0.0 size=N/A time=00:13:21.55 bitrate=N/A speed=20.2x    frame=19491 fps=485 q=-0.0 size=N/A time=00:13:32.93 bitrate=N/A speed=20.2x    frame=19763 fps=485 q=-0.0 size=N/A time=00:13:44.28 bitrate=N/A speed=20.2x    frame=20033 fps=486 q=-0.0 size=N/A time=00:13:55.54 bitrate=N/A speed=20.3x    frame=20326 fps=487 q=-0.0 size=N/A time=00:14:07.76 bitrate=N/A speed=20.3x    frame=20567 fps=487 q=-0.0 size=N/A time=00:14:17.81 bitrate=N/A speed=20.3x    frame=20827 fps=487 q=-0.0 size=N/A time=00:14:28.65 bitrate=N/A speed=20.3x    frame=21080 fps=487 q=-0.0 size=N/A time=00:14:39.21 bitrate=N/A speed=20.3x    frame=21321 fps=487 q=-0.0 size=N/A time=00:14:49.26 bitrate=N/A speed=20.3x    frame=21521 fps=485 q=-0.0 size=N/A time=00:14:57.60 bitrate=N/A speed=20.2x    frame=21729 fps=484 q=-0.0 size=N/A time=00:15:06.28 bitrate=N/A speed=20.2x    frame=21958 fps=484 q=-0.0 size=N/A time=00:15:15.83 bitrate=N/A speed=20.2x    frame=22222 fps=484 q=-0.0 size=N/A time=00:15:26.84 bitrate=N/A speed=20.2x    frame=22467 fps=484 q=-0.0 size=N/A time=00:15:37.06 bitrate=N/A speed=20.2x    frame=22727 fps=484 q=-0.0 size=N/A time=00:15:47.90 bitrate=N/A speed=20.2x    frame=22993 fps=485 q=-0.0 size=N/A time=00:15:58.99 bitrate=N/A speed=20.2x    frame=23248 fps=485 q=-0.0 size=N/A time=00:16:09.63 bitrate=N/A speed=20.2x    frame=23512 fps=485 q=-0.0 size=N/A time=00:16:20.64 bitrate=N/A speed=20.2x    frame=23734 fps=485 q=-0.0 size=N/A time=00:16:29.90 bitrate=N/A speed=20.2x    frame=23989 fps=485 q=-0.0 size=N/A time=00:16:40.54 bitrate=N/A speed=20.2x    frame=24240 fps=485 q=-0.0 size=N/A time=00:16:51.01 bitrate=N/A speed=20.2x    frame=24466 fps=484 q=-0.0 size=N/A time=00:17:00.43 bitrate=N/A speed=20.2x    frame=24698 fps=484 q=-0.0 size=N/A time=00:17:10.11 bitrate=N/A speed=20.2x    frame=24931 fps=484 q=-0.0 size=N/A time=00:17:19.83 bitrate=N/A speed=20.2x    frame=25160 fps=483 q=-0.0 size=N/A time=00:17:29.38 bitrate=N/A speed=20.1x    frame=25353 fps=482 q=-0.0 size=N/A time=00:17:37.43 bitrate=N/A speed=20.1x    frame=25545 fps=481 q=-0.0 size=N/A time=00:17:45.43 bitrate=N/A speed=20.1x    frame=25777 fps=481 q=-0.0 size=N/A time=00:17:55.11 bitrate=N/A speed=20.1x    frame=25979 fps=480 q=-0.0 size=N/A time=00:18:03.54 bitrate=N/A speed=  20x    frame=26159 fps=479 q=-0.0 size=N/A time=00:18:11.04 bitrate=N/A speed=  20x    frame=26408 fps=479 q=-0.0 size=N/A time=00:18:21.43 bitrate=N/A speed=  20x    frame=26678 fps=479 q=-0.0 size=N/A time=00:18:32.69 bitrate=N/A speed=  20x    frame=26903 fps=479 q=-0.0 size=N/A time=00:18:42.07 bitrate=N/A speed=  20x    frame=27107 fps=478 q=-0.0 size=N/A time=00:18:50.58 bitrate=N/A speed=19.9x    frame=27323 fps=477 q=-0.0 size=N/A time=00:18:59.59 bitrate=N/A speed=19.9x    frame=27564 fps=477 q=-0.0 size=N/A time=00:19:09.64 bitrate=N/A speed=19.9x    frame=27826 fps=478 q=-0.0 size=N/A time=00:19:20.57 bitrate=N/A speed=19.9x    frame=28089 fps=478 q=-0.0 size=N/A time=00:19:31.54 bitrate=N/A speed=19.9x    frame=28359 fps=478 q=-0.0 size=N/A time=00:19:42.80 bitrate=N/A speed=19.9x    frame=28627 fps=479 q=-0.0 size=N/A time=00:19:53.98 bitrate=N/A speed=  20x    frame=28891 fps=479 q=-0.0 size=N/A time=00:20:04.99 bitrate=N/A speed=  20x    frame=29135 fps=479 q=-0.0 size=N/A time=00:20:15.17 bitrate=N/A speed=  20x    frame=29407 fps=479 q=-0.0 size=N/A time=00:20:26.51 bitrate=N/A speed=  20x    frame=29670 fps=480 q=-0.0 size=N/A time=00:20:37.48 bitrate=N/A speed=  20x    frame=29945 fps=480 q=-0.0 size=N/A time=00:20:48.95 bitrate=N/A speed=  20x    frame=30186 fps=480 q=-0.0 size=N/A time=00:20:59.00 bitrate=N/A speed=  20x    frame=30422 fps=480 q=-0.0 size=N/A time=00:21:08.85 bitrate=N/A speed=  20x    frame=30685 fps=480 q=-0.0 size=N/A time=00:21:19.82 bitrate=N/A speed=  20x    frame=30935 fps=480 q=-0.0 size=N/A time=00:21:30.24 bitrate=N/A speed=  20x    frame=31199 fps=480 q=-0.0 size=N/A time=00:21:41.25 bitrate=N/A speed=  20x    frame=31458 fps=480 q=-0.0 size=N/A time=00:21:52.06 bitrate=N/A speed=  20x    frame=31709 fps=480 q=-0.0 size=N/A time=00:22:02.52 bitrate=N/A speed=  20x    frame=31975 fps=481 q=-0.0 size=N/A time=00:22:13.62 bitrate=N/A speed=  20x    frame=32230 fps=481 q=-0.0 size=N/A time=00:22:24.25 bitrate=N/A speed=20.1x    frame=32476 fps=481 q=-0.0 size=N/A time=00:22:34.51 bitrate=N/A speed=20.1x    frame=32666 fps=480 q=-0.0 size=N/A time=00:22:42.44 bitrate=N/A speed=  20x    frame=32842 fps=479 q=-0.0 size=N/A time=00:22:49.78 bitrate=N/A speed=  20x    frame=33054 fps=478 q=-0.0 size=N/A time=00:22:58.62 bitrate=N/A speed=  20x    frame=33266 fps=478 q=-0.0 size=N/A time=00:23:07.46 bitrate=N/A speed=19.9x    frame=33471 fps=477 q=-0.0 size=N/A time=00:23:16.01 bitrate=N/A speed=19.9x    frame=33639 fps=476 q=-0.0 size=N/A time=00:23:23.02 bitrate=N/A speed=19.9x    frame=33785 fps=475 q=-0.0 size=N/A time=00:23:29.11 bitrate=N/A speed=19.8x    frame=33929 fps=473 q=-0.0 size=N/A time=00:23:35.12 bitrate=N/A speed=19.7x    frame=34116 fps=473 q=-0.0 size=N/A time=00:23:42.92 bitrate=N/A speed=19.7x    frame=34288 fps=472 q=-0.0 size=N/A time=00:23:50.09 bitrate=N/A speed=19.7x    frame=34432 fps=470 q=-0.0 size=N/A time=00:23:56.10 bitrate=N/A speed=19.6x    frame=34648 fps=470 q=-0.0 size=N/A time=00:24:05.11 bitrate=N/A speed=19.6x    [Parsed_ssim_10 @ 000002df5186f640] SSIM Y:0.993887 (22.137312) U:0.993248 (21.705765) V:0.993291 (21.733697) All:0.993681 (21.993602)
[out#0/null @ 000002df4473d040] video:14903KiB audio:271268KiB subtitle:0KiB other streams:0KiB global headers:0KiB muxing overhead: unknown
frame=34683 fps=470 q=-0.0 Lsize=N/A time=00:24:06.57 bitrate=N/A speed=19.6x    
